<?xml version="1.0" encoding="UTF-8"?> <svg xmlns="http://www.w3.org/2000/svg" xmlns:xlink="http://www.w3.org/1999/xlink" xmlns:svgjs="http://svgjs.com/svgjs" width="512" height="512" x="0" y="0" viewBox="0 0 48 48" style="enable-background:new 0 0 512 512" xml:space="preserve" class=""> <g> <g xmlns="http://www.w3.org/2000/svg"> <path d="m29.10295 29.23577c5.40741-5.32359 5.46898-14.06268.13592-19.48193-5.34064-5.40884-14.08399-5.46567-19.48904-.12882-5.41892 5.33366-5.48362 14.05192-.12976 19.47341 5.35142 5.43681 14.0733 5.47785 19.48288.13734zm-18.33206-18.57454c4.83724-4.77608 12.65761-4.72153 17.43177.11366 4.76996 4.84716 4.71597 12.66371-.12077 17.42467-.00047.00047-.00095.00047-.00095.00095-4.92324 4.86058-12.70895 4.66801-17.42467-.12313-4.76628-4.82675-4.75385-12.62446.11462-17.41615z" fill="#1c6ea8" data-original="#000000" style="" class=""></path> <path d="m27.3833 37.14158c1.62908 3.28421 3.85056 6.68136 5.43257 8.26337 3.45788 3.45788 9.10303 3.47306 12.58414-.00805 3.46666-3.46713 3.46666-9.10896 0-12.57609-1.57971-1.57971-4.97058-3.79763-8.25142-5.42701 3.17664-7.06417 1.96442-15.67724-3.89087-21.61005-7.53836-7.64022-19.84284-7.72849-27.48744-.1847-7.62427 7.52387-7.70336 19.85085-.17617 27.47891 5.64287 5.71815 14.26997 7.43037 21.78919 4.06362zm16.98808-3.29213c2.8993 2.90025 2.8993 7.61859 0 10.51883-2.90451 2.90451-7.62616 2.90782-10.52688.00805-1.27916-1.27916-3.40935-4.33663-5.15357-7.8568 1.56085-.84117 3.20677-2.08698 4.38079-3.24768.00041-.00041.00089-.00071.0013-.00113.00006-.00006.00018-.00018.00024-.00024s.00018-.00018.00024-.00024c1.31022-1.29632 2.62686-3.06309 3.44664-4.57171 3.51816 1.74399 6.57297 3.87264 7.85124 5.15092zm-37.57909-27.21513c7.27123-7.17555 18.63494-6.71444 25.43018.17144 7.02864 7.12233 6.85063 18.49577-.16901 25.42704-.00089.00089-.00172.00195-.00261.00284-7.01233 6.92015-18.43044 6.90456-25.42147-.17967-6.96362-7.05691-6.89069-18.46087.16291-25.42165z" fill="#1c6ea8" data-original="#000000" style="" class=""></path> <path d="m12.29584 23.37655c.66153 1.15005 2.12984 1.54071 3.28385.87471l1.43781-.83162v1.66418c0 1.31016 1.06982 2.40914 2.40913 2.40914 1.32462 0 2.40203-1.08072 2.40203-2.40914v-1.66608l1.43781.82878c1.12342.66846 2.62236.28466 3.29048-.86808.00095-.00142.00189-.00284.00237-.00426.65639-1.15081.26047-2.62556-.88324-3.28716l-1.44349-.83257 1.44491-.83304c1.08039-.62603 1.57596-2.02306.87945-3.28385-.66302-1.14419-2.13493-1.53821-3.28196-.8804l-1.44633.83399v-1.66608c0-1.32113-1.05389-2.40203-2.40203-2.40203-1.32841 0-2.40913 1.07741-2.40913 2.40203v1.66418l-1.4506-.83872c-1.16218-.64171-2.63598-.20743-3.27011.88703-.67137 1.1592-.26884 2.62908.88087 3.2848l1.44349.83209-1.44444.83304c-1.13429.65643-1.55506 2.12359-.88087 3.28906zm1.60829-2.02884 2.53653-1.46291c.48367-.27943.48651-.97962 0-1.26069l-2.53937-1.46386c-.45493-.2594-.61018-.83594-.34572-1.29337.25574-.44044.83399-.60335 1.29573-.34951l2.52943 1.46291c.4886.28082 1.09162-.07309 1.09162-.62987v-2.92534c0-.52237.42812-.94717.95428-.94717.54988 0 .94717.43587.94717.94717v2.92534c0 .5599.6081.9093 1.09067.63034l2.53605-1.46244c.45417-.26142 1.03573-.10466 1.29005.3353.28435.51548.09166 1.05768-.34098 1.30805l-2.53653 1.46243c-.48367.27943-.48651.97962 0 1.26069l2.53558 1.46244c.45228.26142.60809.84583.34809 1.30426-.25053.42954-.85198.60288-1.29526.33956l-2.537-1.46291c-.48223-.27876-1.09067.07007-1.09067.63034v2.92534c0 .52616-.42481.95428-.94717.95428-.53188 0-.95428-.44327-.95428-.95428v-2.92534c0-.55969-.60656-.90908-1.09162-.62987l-2.52943 1.46291c-.45778.26257-1.03397.11262-1.29526-.34193-.26852-.46286-.10039-1.04219.34809-1.30187z" fill="#1c6ea8" data-original="#000000" style="" class=""></path> </g> </g> </svg> 