<?xml version="1.0" encoding="UTF-8"?> <svg xmlns="http://www.w3.org/2000/svg" width="512" height="511" viewBox="0 0 512 511" fill="none"> <path d="M498.015 231.412C498.015 227.826 500.921 224.919 504.507 224.919C508.094 224.919 511 227.826 511 231.412V279.491C511 281.662 510.182 283.19 509.012 284.183C507.819 285.194 506.193 285.707 504.522 285.683C502.851 285.66 501.212 285.1 500.007 284.066C498.823 283.05 498.015 281.542 498.015 279.491V231.412Z" fill="#1C6EA8" stroke="white" stroke-width="2"></path> <path d="M466.983 182.537C466.983 178.952 469.889 176.045 473.476 176.045C477.061 176.045 479.968 178.952 479.968 182.537V328.366C479.968 330.538 479.15 332.065 477.98 333.058C476.788 334.07 475.161 334.582 473.49 334.559C471.819 334.535 470.18 333.975 468.976 332.941C467.791 331.925 466.983 330.417 466.983 328.366V182.537Z" fill="#1C6EA8" stroke="white" stroke-width="2"></path> <path d="M435.95 198.854C435.95 195.268 438.856 192.362 442.443 192.362C446.029 192.362 448.936 195.268 448.936 198.854V312.048C448.936 314.219 448.117 315.747 446.947 316.74C445.755 317.751 444.128 318.264 442.457 318.24C440.786 318.217 439.147 317.657 437.943 316.623C436.759 315.607 435.95 314.099 435.95 312.048V198.854Z" fill="#1C6EA8" stroke="white" stroke-width="2"></path> <path d="M404.918 148.547C404.918 144.962 407.825 142.055 411.411 142.055C414.997 142.055 417.904 144.962 417.904 148.547V362.356C417.904 364.527 417.085 366.055 415.915 367.048C414.723 368.059 413.096 368.572 411.425 368.548C409.754 368.524 408.116 367.965 406.911 366.931C405.727 365.915 404.918 364.407 404.918 362.356V148.547Z" fill="#1C6EA8" stroke="white" stroke-width="2"></path> <path d="M1 231.412C1 227.826 3.9061 224.919 7.49268 224.919C11.0793 224.919 13.9854 227.826 13.9854 231.412V279.491C13.9854 281.662 13.167 283.19 11.9969 284.183C10.8046 285.194 9.17786 285.707 7.50691 285.683C5.83593 285.66 4.19722 285.1 2.99264 284.066C1.80842 283.05 1 281.542 1 279.491V231.412Z" fill="#1C6EA8" stroke="white" stroke-width="2"></path> <path d="M32.0327 182.537C32.0327 178.952 34.9388 176.045 38.5254 176.045C42.1111 176.045 45.0181 178.952 45.0181 182.537V328.366C45.0181 330.538 44.1998 332.065 43.0296 333.058C41.8373 334.07 40.2106 334.582 38.5396 334.559C36.8686 334.535 35.2299 333.975 34.0254 332.941C32.8411 331.925 32.0327 330.417 32.0327 328.366V182.537Z" fill="#1C6EA8" stroke="white" stroke-width="2"></path> <path d="M63.0645 198.854C63.0645 195.268 65.9705 192.362 69.5571 192.362C73.1437 192.362 76.0498 195.268 76.0498 198.854V312.048C76.0498 314.219 75.2315 315.747 74.0614 316.74C72.8691 317.751 71.2423 318.264 69.5714 318.24C67.9004 318.217 66.2617 317.657 65.0571 316.623C63.8729 315.607 63.0645 314.099 63.0645 312.048V198.854Z" fill="#1C6EA8" stroke="white" stroke-width="2"></path> <path d="M94.0972 148.547C94.0972 144.962 97.0033 142.055 100.59 142.055C104.176 142.055 107.083 144.962 107.083 148.547V362.356C107.083 364.527 106.264 366.055 105.094 367.048C103.902 368.059 102.275 368.572 100.604 368.548C98.9331 368.524 97.2944 367.965 96.0898 366.931C94.9056 365.915 94.0972 364.407 94.0972 362.356V148.547Z" fill="#1C6EA8" stroke="white" stroke-width="2"></path> <path d="M372.067 174.438L373.886 177.03V173.864V118.22C373.886 116.048 374.704 114.521 375.874 113.528C377.067 112.516 378.693 112.004 380.364 112.027C382.035 112.051 383.674 112.611 384.879 113.645C386.063 114.661 386.871 116.169 386.871 118.22V198.854C386.871 199.372 386.803 199.88 386.683 200.378L387.655 200.612L386.733 200.998C393.757 217.766 397.649 236.161 397.649 255.45C397.649 274.74 393.761 293.135 386.737 309.903L386.611 310.205L386.687 310.523C386.807 311.021 386.875 311.529 386.875 312.047V392.681C386.875 394.853 386.057 396.38 384.887 397.373C383.694 398.385 382.068 398.898 380.397 398.874C378.726 398.85 377.087 398.29 375.882 397.257C374.698 396.24 373.89 394.733 373.89 392.681V337.037V333.871L372.071 336.463C367.312 343.245 361.981 349.596 356.136 355.435L355.843 355.728V356.143V458.252C355.843 460.424 355.024 461.951 353.854 462.944C352.662 463.956 351.035 464.468 349.364 464.445C347.693 464.421 346.054 463.861 344.85 462.828C343.666 461.811 342.857 460.303 342.857 458.252V369.166V367.159L341.255 368.368C336.197 372.185 330.872 375.667 325.32 378.789L324.81 379.076V379.661V437.773C324.81 439.945 323.991 441.472 322.821 442.465C321.629 443.477 320.002 443.989 318.331 443.966C316.66 443.942 315.022 443.382 313.817 442.349C312.633 441.332 311.824 439.824 311.824 437.773V386.967V385.467L310.44 386.043C305.274 388.195 299.957 390.051 294.506 391.585L293.777 391.79V392.547V480.232C293.777 482.403 292.959 483.931 291.789 484.923C290.596 485.935 288.97 486.448 287.299 486.424C285.628 486.4 283.989 485.841 282.784 484.807C281.6 483.791 280.792 482.283 280.792 480.232V395.889V394.708L279.627 394.903C274.244 395.801 268.763 396.403 263.196 396.673L262.245 396.72V397.672V503.709C262.245 505.88 261.427 507.408 260.256 508.401C259.064 509.412 257.437 509.925 255.766 509.901C254.096 509.878 252.457 509.318 251.252 508.284C250.068 507.268 249.26 505.76 249.26 503.709V397.617V396.671L248.315 396.619C242.945 396.32 237.626 395.727 232.38 394.835L231.212 394.637V395.821V480.233C231.212 482.404 230.394 483.932 229.224 484.924C228.031 485.936 226.405 486.449 224.734 486.425C223.063 486.401 221.424 485.842 220.22 484.808C219.035 483.792 218.227 482.284 218.227 480.233V392.426V391.671L217.5 391.464C212.076 389.924 206.756 388.062 201.566 385.886L200.18 385.304V386.808V437.774C200.18 439.946 199.361 441.473 198.191 442.466C196.999 443.478 195.372 443.99 193.701 443.967C192.03 443.943 190.391 443.383 189.187 442.35C188.003 441.333 187.194 439.825 187.194 437.774V379.453V378.87L186.687 378.583C181.168 375.457 175.846 371.948 170.752 368.072L169.147 366.85V368.867V458.253C169.147 460.425 168.329 461.952 167.158 462.945C165.966 463.957 164.339 464.469 162.668 464.446C160.997 464.422 159.359 463.862 158.154 462.829C156.97 461.812 156.161 460.304 156.161 458.253V353.429C156.161 350.665 158.017 348.503 160.516 347.516C163.021 346.526 165.965 346.804 167.983 348.715L168.67 347.989L167.983 348.715C191.92 371.379 223.27 383.861 256.25 383.861C327.055 383.861 384.655 326.258 384.655 255.451C384.655 184.644 327.051 127.041 256.246 127.041C185.44 127.041 127.836 184.645 127.836 255.451C127.836 270.079 130.435 279.282 133.024 287.106C133.318 287.996 133.612 288.866 133.901 289.722C136.147 296.382 138.11 302.202 138.11 310.147V392.682C138.11 394.854 137.292 396.381 136.122 397.374C134.929 398.386 133.303 398.898 131.632 398.875C129.961 398.851 128.322 398.291 127.117 397.258C125.933 396.241 125.125 394.733 125.125 392.682V308.628V308.434L125.052 308.254C118.287 291.474 114.851 273.727 114.851 255.451C114.851 236.737 118.513 218.867 125.145 202.506L125.249 202.251L125.207 201.98C125.156 201.643 125.125 201.322 125.125 201.004V118.22C125.125 116.048 125.943 114.521 127.113 113.528C128.306 112.516 129.932 112.004 131.603 112.027C133.274 112.051 134.913 112.611 136.118 113.645C137.302 114.661 138.11 116.169 138.11 118.22V174.584V177.784L139.932 175.153C144.68 168.297 150.015 161.877 155.868 155.972L156.157 155.679V155.268V52.6491C156.157 50.4774 156.976 48.9501 158.146 47.9571C159.338 46.9454 160.965 46.4326 162.636 46.4564C164.307 46.4802 165.946 47.04 167.15 48.0736C168.334 49.0897 169.143 50.5976 169.143 52.6491V142.119V144.137L170.749 142.914C175.806 139.063 181.128 135.544 186.684 132.391L187.19 132.103V131.521V73.1291C187.19 70.9574 188.008 69.4301 189.179 68.4371C190.371 67.4254 191.998 66.9126 193.669 66.9364C195.34 66.9602 196.978 67.52 198.183 68.5536C199.367 69.5697 200.176 71.0776 200.176 73.1291V124.14V125.646L201.564 125.062C206.728 122.887 212.046 121.01 217.497 119.454L218.223 119.247V118.493V30.6706C218.223 28.4989 219.041 26.9715 220.211 25.9786C221.404 24.9669 223.03 24.4541 224.701 24.4779C226.372 24.5016 228.011 25.0615 229.216 26.095C230.4 27.1111 231.208 28.6191 231.208 30.6706V115.096V116.281L232.377 116.082C237.598 115.19 242.914 114.584 248.311 114.283L249.256 114.231V113.285V7.19349C249.256 5.0218 250.074 3.49446 251.244 2.50154C252.436 1.48982 254.063 0.977005 255.734 1.00079C257.405 1.02457 259.044 1.58438 260.248 2.61795C261.432 3.63405 262.241 5.14202 262.241 7.19349V113.23V114.182L263.192 114.229C268.76 114.5 274.241 115.101 279.623 116L280.788 116.194V115.013V30.6706C280.788 28.4989 281.606 26.9715 282.776 25.9786C283.969 24.9669 285.595 24.4541 287.266 24.4779C288.937 24.5016 290.576 25.0615 291.78 26.095C292.965 27.1111 293.773 28.6191 293.773 30.6706V118.355V119.112L294.502 119.318C299.954 120.851 305.27 122.707 310.436 124.859L311.82 125.435V123.935V73.1291C311.82 70.9574 312.639 69.4301 313.809 68.4371C315.001 67.4254 316.628 66.9126 318.299 66.9364C319.97 66.9602 321.609 67.52 322.813 68.5536C323.997 69.5697 324.806 71.0776 324.806 73.1291V131.24V131.825L325.316 132.112C330.869 135.234 336.193 138.716 341.251 142.533L342.853 143.743V141.735V52.6491C342.853 50.4774 343.671 48.9501 344.842 47.9571C346.034 46.9454 347.661 46.4326 349.332 46.4564C351.003 46.4802 352.641 47.04 353.846 48.0736C355.03 49.0897 355.839 50.5976 355.839 52.6491V154.758V155.173L356.132 155.466C361.977 161.305 367.309 167.656 372.067 174.438Z" fill="#1C6EA8" stroke="white" stroke-width="2"></path> <path d="M283.221 195.969L283.221 195.969L234.457 213.387L233.794 213.624V214.329V224.276V225.695L235.13 225.218L300.597 201.837L301.261 201.6V200.895V180.315C301.261 178.144 302.079 176.616 303.249 175.623C304.441 174.612 306.068 174.099 307.739 174.123C309.41 174.146 311.049 174.706 312.253 175.74C313.438 176.756 314.246 178.264 314.246 180.315V276.571C314.246 291.241 302.31 303.177 287.64 303.177C272.97 303.177 261.034 291.241 261.034 276.571C261.034 261.901 272.971 249.965 287.64 249.965C292.022 249.965 296.154 251.036 299.802 252.92L301.261 253.673V252.031V216.806V215.387L299.924 215.864L234.457 239.245L233.794 239.482V240.187V305.303C233.794 319.973 221.857 331.909 207.188 331.909C192.518 331.909 180.582 319.973 180.582 305.303C180.582 290.633 192.519 278.697 207.188 278.697C211.569 278.697 215.701 279.768 219.349 281.652L220.808 282.405V280.763V209.046C220.808 206.347 222.563 203.843 225.117 202.932L225.118 202.932L278.853 183.741L278.853 183.741C280.898 183.01 282.612 183.267 283.94 184.035C285.294 184.818 286.324 186.177 286.864 187.759C287.404 189.341 287.428 191.072 286.859 192.554C286.301 194.011 285.153 195.28 283.221 195.969ZM274.02 276.569C274.02 284.081 280.13 290.19 287.641 290.19C295.152 290.19 301.262 284.081 301.262 276.569C301.262 269.058 295.152 262.949 287.641 262.949C280.13 262.949 274.02 269.058 274.02 276.569ZM193.568 305.303C193.568 312.815 199.677 318.924 207.189 318.924C214.699 318.924 220.809 312.815 220.809 305.303C220.809 297.792 214.7 291.683 207.189 291.683C199.677 291.683 193.568 297.792 193.568 305.303Z" fill="#1C6EA8" stroke="white" stroke-width="2"></path> </svg> 