<?xml version="1.0" encoding="UTF-8"?> <svg xmlns="http://www.w3.org/2000/svg" xmlns:xlink="http://www.w3.org/1999/xlink" xmlns:svgjs="http://svgjs.com/svgjs" width="512" height="512" x="0" y="0" viewBox="0 0 48 48" style="enable-background:new 0 0 512 512" xml:space="preserve" class=""> <g> <g xmlns="http://www.w3.org/2000/svg"> <path d="m23.99818 0c-9.36746 0-16.98849 7.62103-16.98849 16.98897 0 4.72224 4.223 11.52548 8.42182 17.12893h-1.28803c-1.52765 0-2.97408.80825-3.77469 2.10947l-3.0916 5.01907c-1.81903 2.95746.30319 6.75356 3.76514 6.75356h25.91553c3.45868 0 5.58578-3.79517 3.76418-6.75451l-3.09829-5.01429c-.792-1.30361-2.23558-2.11329-3.768-2.11329h-1.29065c4.19906-5.60441 8.42253-12.40848 8.42253-17.12893 0-9.36795-7.62103-16.98898-16.98945-16.98898zm0 1.46746c8.55921 0 15.52199 6.96278 15.52199 15.52152 0 6.28414-8.72157 17.29109-12.78866 22.06441-1.47258 1.73815-4.07788 1.64766-5.4743-.00143-4.06038-4.76546-12.78007-15.80341-12.78007-22.06299 0-8.55873 6.96278-15.52151 15.52104-15.52151zm7.44907 34.11791h2.4085c1.02321 0 1.98623.53931 2.51742 1.41253l3.10019 5.01764c1.21606 1.9766-.20203 4.51702-2.5155 4.51702h-25.91553c-2.31114 0-3.73262-2.53822-2.51551-4.51654l3.0916-5.01907c.53597-.87082 1.50376-1.41157 2.52506-1.41157h2.40659c1.12119 1.44478 2.24109 2.83268 3.59317 4.42244 2.03351 2.39169 5.69862 2.36683 7.71084 0 1.07139-1.26002 2.30371-2.76211 3.57185-4.39562.00693-.00898.01439-.01788.02132-.02683z" fill="#1c6ea8" data-original="#000000" style="" class=""></path> <path d="m24.00391 27.48139c6.19466 0 11.23427-5.04439 11.23427-11.24525s-5.03961-11.24526-11.23427-11.24526c-6.20039 0-11.24477 5.04439-11.24477 11.24525s5.04438 11.24526 11.24477 11.24526zm0-21.02305c5.38545 0 9.76681 4.38613 9.76681 9.7778s-4.38135 9.7778-9.76681 9.7778c-5.39119 0-9.77732-4.38613-9.77732-9.7778s4.38614-9.7778 9.77732-9.7778z" fill="#1c6ea8" data-original="#000000" style="" class=""></path> <path d="m17.49589 19.71371c.60723 1.05524 1.95745 1.4168 3.01708.80395l1.12543-.65061v1.3017c0 1.21001.98673 2.21361 2.21265 2.21361 1.21715 0 2.20692-.99311 2.20692-2.21361v-1.30313l1.12352.64775c1.00219.59377 2.43618.21782 3.02376-.79822.00096-.00143.00096-.00287.00191-.00382.60284-1.05712.23884-2.41137-.81111-3.01994l-1.12926-.65061 1.13021-.65204c.99983-.57903 1.44628-1.8669.80825-3.0166-.60857-1.05235-1.96043-1.41587-3.01612-.8092l-1.13117.65252v-1.30316c0-1.19566-.95461-2.2074-2.20692-2.2074-1.22001 0-2.21265.99025-2.21265 2.2074v1.3017l-1.13785-.6573c-1.06333-.58994-2.41806-.19251-3.0037.81541-.61337 1.06106-.25064 2.41108.8092 3.01756l1.12926.65109-1.13021.65157c-1.05324.6107-1.4203 1.95951-.8092 3.02138zm1.54389-1.75073 2.23176-1.28641c.48565-.28074.49151-.98644 0-1.27161l-2.23462-1.28832c-.35489-.20223-.47597-.65303-.27037-1.00888.20159-.34489.65634-.47005 1.0127-.27372l2.22603 1.28689c.48749.28061 1.10059-.06904 1.10059-.63532v-2.57331c0-.40795.33438-.73994.74519-.73994.43416 0 .73946.34465.73946.73994v2.57331c0 .56811.61484.91526 1.10059.6358l2.2308-1.28641c.35158-.20302.8092-.08216 1.00601.25986.22613.40795.07163.82892-.26559 1.02369l-2.2308 1.28689c-.48721.28045-.48982.98695 0 1.27113l2.22985 1.28546c.35349.20493.47482.66208.27228 1.02082-.19776.33725-.65825.47339-1.01079.26368l-2.23176-1.28689c-.48712-.27923-1.10059.06897-1.10059.6358v2.57331c0 .41129-.33152.74615-.73946.74615-.41295 0-.74519-.34453-.74519-.74615v-2.57331c0-.56529-.61224-.91644-1.10059-.63532l-2.22698 1.28737c-.35688.20703-.80703.08558-1.01079-.26655-.21001-.36301-.07682-.81578.27227-1.01796z" fill="#1c6ea8" data-original="#000000" style="" class=""></path> </g> </g> </svg> 