<?xml version="1.0" encoding="UTF-8"?> <svg xmlns="http://www.w3.org/2000/svg" xmlns:xlink="http://www.w3.org/1999/xlink" xmlns:svgjs="http://svgjs.com/svgjs" width="512" height="512" x="0" y="0" viewBox="0 0 48 48" style="enable-background:new 0 0 512 512" xml:space="preserve" class=""> <g> <g xmlns="http://www.w3.org/2000/svg"> <path d="m48 25.10897c0-1.56682-1.27439-2.84121-2.84121-2.84121s-2.84121 1.27439-2.84121 2.84121v3.63975h-30.8669c-.35647-2.22958-2.27718-3.94322-4.60574-3.94322h-1.16252v-8.36613c0-1.56682-1.2744-2.84121-2.84121-2.84121-1.56682-.00001-2.84121 1.27438-2.84121 2.8412v25.36923c0 1.56682 1.27439 2.84121 2.84121 2.84121 1.56681 0 2.84121-1.27439 2.84121-2.84121v-5.83368h36.63515v5.83368c0 1.56682 1.27439 2.84121 2.84121 2.84121 1.56683 0 2.84122-1.27439 2.84122-2.84121zm-42.31566 1.17163h1.16059c1.51352 0 2.78551 1.05447 3.11971 2.46763h-4.2803zm-1.47702 15.52799c0 .7534-.61271 1.3661-1.36611 1.3661s-1.36611-.61271-1.36611-1.3661v-25.36923c0-.7534.61271-1.36611 1.36611-1.36611s1.36611.61271 1.36611 1.36611zm38.10882-7.30878h-36.6318v-4.27598h36.63179v4.27598zm4.20875 7.30878c0 .7534-.61271 1.3661-1.3661 1.3661-.7534 0-1.36611-.61271-1.36611-1.3661v-16.69962c0-.7534.61271-1.36611 1.36611-1.36611s1.3661.61271 1.3661 1.36611z" fill="#1c6ea8" data-original="#000000" style=""></path> <path d="m17.53225 14.34147c0 6.05408 4.93046 10.97974 10.99127 10.97974s10.99127-4.92566 10.99127-10.97974c0-6.0608-4.93047-10.99127-10.99127-10.99127s-10.99127 4.93046-10.99127 10.99127zm10.99126-9.51616c5.24738 0 9.51616 4.26878 9.51616 9.51616 0 5.24066-4.26878 9.50464-9.51616 9.50464s-9.51616-4.26398-9.51616-9.50464c0-5.24739 4.26878-9.51616 9.51616-9.51616z" fill="#1c6ea8" data-original="#000000" style=""></path> <path d="m22.45887 17.77666c.58138 1.01118 1.87461 1.35222 2.88155.76781l.96324-.55701v1.11545c0 1.14992.93836 2.11374 2.11374 2.11374 1.16251 0 2.10798-.94835 2.10798-2.11374v-1.11737l.96084.55412c.95651.56901 2.32742.20936 2.88923-.76156.00048-.00144.00144-.0024.00192-.00384.57573-1.00885.22856-2.30245-.77501-2.88395l-.96756-.55749.969-.55893c.95246-.55209 1.38094-1.78013.77164-2.88059-.58245-1.00549-1.87461-1.35266-2.88011-.77309l-.96996.55941v-1.11688c0-1.13977-.91006-2.10798-2.10798-2.10798-1.16539 0-2.11374.94547-2.11374 2.10798v1.11545l-.97524-.56421c-1.01365-.56037-2.31109-.18199-2.86858.77885-.58856 1.01606-.23692 2.30658.77261 2.88203l.96756.55797-.969.55845c-.9945.57571-1.36258 1.86398-.77213 2.88538zm1.51016-1.60812 2.07581-1.1966c.49015-.28214.49326-.99326 0-1.27823l-2.07869-1.19852c-.3036-.1732-.40642-.55762-.23001-.86288.17094-.29579.56229-.40191.86576-.23433l2.07005 1.19708c.48906.28211 1.10681-.06906 1.10681-.63864v-2.39368c0-.34909.28666-.63287.63864-.63287.37554 0 .63287.29698.63287.63287v2.39369c0 .56769.61656.92196 1.10585.63912l2.07533-1.19708c.30395-.17382.69242-.06818.86.22136.19866.35821.05499.71449-.22568.8768l-2.07581 1.19708c-.49362.28518-.48988.99625 0 1.27823l2.07437 1.19564c.30203.17526.40671.56661.23337.87344-.17117.29407-.56457.40592-.86576.22568l-2.07581-1.1966c-.48894-.28264-1.10585.07104-1.10585.63912v2.39368c0 .35197-.28378.63864-.63287.63864-.35431 0-.63864-.2968-.63864-.63864v-2.39368c0-.56599-.61444-.92206-1.10681-.63864l-2.07053 1.19708c-.30423.17623-.69.07557-.8648-.22808-.17992-.30992-.06585-.69852.2324-.87104z" fill="#1c6ea8" data-original="#000000" style=""></path> </g> </g> </svg> 