<?xml version="1.0" encoding="UTF-8"?> <svg xmlns="http://www.w3.org/2000/svg" xmlns:xlink="http://www.w3.org/1999/xlink" xmlns:svgjs="http://svgjs.com/svgjs" width="512" height="512" x="0" y="0" viewBox="0 0 48 48" style="enable-background:new 0 0 512 512" xml:space="preserve"> <g> <g xmlns="http://www.w3.org/2000/svg"> <path d="m0 19.17975c0 1.14661.38121 2.22324 1.08705 3.09338-1.94542 3.01789-.36851 7.19171 3.25123 8.02333-.08245 4.94677 3.89992 8.79171 8.61302 8.79171.28591 0 .56983-.0139.8478-.04169-.90538 3.24427-.28293 4.8545-.20053 5.0456.12111.27896.3961.45964.69988.45964h5.1692c.40403 0 .7386-.31569.76143-.71974.46026-8.22814 7.44487-8.5411 7.91897-8.55233.00844.00025.01545.00484.02395.00484 3.50466 0 6.65492-2.27396 7.75628-5.56729.90438.29335 1.84948.44127 2.82037.44127 5.1017 0 9.25135-4.15015 9.25135-9.25135 0-2.42775-.92027-4.70658-2.599-6.45381-.07426-3.27739-2.93661-5.83773-6.25191-5.48793-1.25451-2.38452-4.14458-3.49197-6.67755-2.46144-1.52651-2.91811-5.44886-3.65127-7.90023-1.35857-.94807-1.06521-2.32202-1.69709-3.78036-1.69709-1.20519 0-2.34386.42291-3.25619 1.19973-2.97473-.9223-6.20043.70153-7.1378 3.75057-3.22671-.44667-6.06068 2.07152-6.06068 5.28138 0 .18266.00893.36235.0278.53856-2.45703.30875-4.36408 2.41584-4.36408 4.96123zm4.98852-3.47559c.0685-.0005.14693-.00248.21542.00645.55133.06411.99392-.46335.81405-.9987-.10424-.31222-.15685-.65918-.15685-1.03195 0-2.61518 2.57972-4.3881 4.87039-3.64783.45218.14512.91579-.14901.98778-.60458.6482-4.03707 6.07515-4.75983 7.86648-1.20072.18958.37706.64934.5273 1.02352.33852.37625-.18912.52814-.64727.33852-1.02352-.43792-.8707-1.07979-1.58274-1.8424-2.11522.51405-.28591 1.08463-.4535 1.68555-.4535 1.26376 0 2.43718.67903 3.06161 1.77204.27932.48722.96804.51369 1.28659.05907 1.67774-2.39658 5.36914-1.76364 6.21654.97636.14961.4794.71066.68627 1.13272.42092 1.70002-1.06251 3.97277-.57042 5.11404 1.16039-.91581.37743-1.72917.98927-2.35224 1.81138-.25414.33604-.18862.81405.14693 1.06819.33753.25563.81404.18713 1.06819-.14692 2.35204-3.10498 7.39533-1.49564 7.41329 2.50202-.00149 1.2243-.5408 2.37687-1.48067 3.16306-.32264.27003-.36533.75101-.0953 1.07365.27057.32397.75183.36551 1.07415.0958.7919-.66228 1.3737-1.51536 1.70639-2.46367.90408 1.29571 1.39195 2.82888 1.39195 4.44171 0 4.26035-3.46566 7.7265-7.7265 7.7265-.85524 0-1.68362-.14426-2.47465-.41602.05075-.36775.08612-.74027.08612-1.12173 0-2.19346-.84978-4.25389-2.3935-5.80158-.29683-.29782-.7793-.29931-1.07811-.00149-.29882.29782-.29882.78029-.00199 1.07861 1.25681 1.25979 1.94875 2.93752 1.94875 4.72445 0 2.91329-1.96006 5.72352-5.13247 6.46175.3304-.54768.54408-1.16846.59564-1.82962.03177-.41993-.28194-.78675-.70187-.81901-.42192-.04418-.78625.28095-.81901.70088-.07446.96941-.67308 1.8187-1.56158 2.21629-.02041.00912-.03307.02668-.05224.03735-2.26587.36334-7.66526 1.97748-8.40094 9.16337h-3.86474c-.09927-.68003-.13799-2.10411.60259-4.33133.81504-.24868 1.58541-.61649 2.29522-1.09648.34845-.23627.43978-.7103.20351-1.05876-.23528-.34895-.70981-.44078-1.05926-.20401-1.20447.81578-2.64865 1.22702-3.98883 1.22702-3.94493 0-7.33033-3.27557-7.06707-7.60445.52386-.70547 1.38767-1.11305 2.26816-1.02445.43581.04567.7932-.26457.8339-.684.04169-.41894-.26407-.79221-.68301-.8339-1.33009-.13241-2.63498.41168-3.48551 1.40566-2.79153-.54299-3.98177-3.82219-2.22039-6.0286.69374-.87752 1.75312-1.45213 2.95402-1.45213.42092 0 .76242-.3415.76242-.76242s-.3415-.76242-.76242-.76242c-1.31302 0-2.50078.49792-3.42855 1.29205-.38754-.5609-.598-1.22467-.598-1.92889-.00001-1.91649 1.55363-3.47559 3.46366-3.47559z" fill="#1c6ea8" data-original="#000000" style=""></path> <path d="m38.27412 16.49041c.38916-.15933.57579-.60458.41695-.99423-.15983-.39015-.6016-.57529-.99472-.41745-1.86504.76176-4.02492-.12707-4.80189-2.02817-.15983-.39015-.60061-.57529-.99473-.41745-.38915.15933-.57579.60458-.41695.99423 1.08051 2.6433 4.10612 3.95908 6.79134 2.86307z" fill="#1c6ea8" data-original="#000000" style=""></path> <path d="m20.26581 33.43054c6.64143 0 12.04393-5.39703 12.04393-12.03102 0-6.64094-5.40249-12.04393-12.04393-12.04393s-12.04393 5.40299-12.04393 12.04393c0 6.63398 5.40249 12.03102 12.04393 12.03102zm0-22.5501c5.80058 0 10.51908 4.71899 10.51908 10.51908 0 5.79314-4.7185 10.50617-10.51908 10.50617s-10.51908-4.71304-10.51908-10.50617c0-5.80009 4.71849-10.51908 10.51908-10.51908z" fill="#1c6ea8" data-original="#000000" style=""></path> <path d="m13.64224 24.89496c.64923 1.12946 2.09165 1.50976 3.22144.85773l1.26177-.73016v1.46181c0 1.26701 1.03375 2.36272 2.36272 2.36272 1.2985 0 2.35577-1.05975 2.35577-2.36272v-1.46429l1.26177.72718c1.06422.63535 2.59999.23478 3.22839-.85127.00099-.00149.00099-.00298.00199-.00397.6433-1.12825.25513-2.57418-.86567-3.22343l-1.26872-.73115 1.26972-.73215c1.05527-.61113 1.54717-1.97742.86269-3.22045-.65025-1.12329-2.09667-1.51095-3.21946-.86319l-1.27071.73314v-1.46429c0-1.27702-1.01692-2.35577-2.35577-2.35577-1.30247 0-2.36272 1.05677-2.36272 2.35577v1.46181l-1.27666-.7381c-1.14165-.6284-2.5851-.20252-3.20655.87113-.6615 1.14571-.25393 2.58204.86468 3.22095l1.26872.73115-1.26972.73215c-1.11679.64675-1.52141 2.09017-.86368 3.2254zm1.6271-1.90507 2.41335-1.39182c.50725-.29429.50788-1.02668 0-1.32134l-2.41732-1.39331c-.39267-.22366-.53866-.72971-.30279-1.13421.22337-.38568.73363-.52814 1.13669-.30676l2.4064 1.39182c.50878.2918 1.14463-.07203 1.14463-.66017v-2.78365c0-.45815.37625-.83092.83787-.83092.48191 0 .83092.37953.83092.83092v2.78365c0 .59033.63889.95106 1.14364.66067l2.41335-1.39182c.3961-.22932.90935-.09133 1.12974.29236.25547.45984.07811.93244-.29782 1.1496l-2.41335 1.39182c-.50725.29429-.50788 1.02668 0 1.32134l2.41236 1.39083c.3971.22982.53409.74307.30576 1.14562-.21939.37675-.74257.53261-1.13569.29733l-2.41434-1.39182c-.50617-.29015-1.14364.07166-1.14364.66067v2.78364c0 .46212-.37228.83787-.83092.83787-.46494 0-.83787-.3908-.83787-.83787v-2.78364c0-.59068-.63851-.95151-1.14463-.66017l-2.4064 1.39232c-.40131.23019-.90643.09873-1.13768-.3008-.23094-.40259-.08956-.91295.30774-1.14216z" fill="#1c6ea8" data-original="#000000" style=""></path> </g> </g> </svg> 