<?xml version="1.0" encoding="UTF-8"?> <svg xmlns="http://www.w3.org/2000/svg" xmlns:xlink="http://www.w3.org/1999/xlink" xmlns:svgjs="http://svgjs.com/svgjs" width="512" height="512" x="0" y="0" viewBox="0 0 48 48" style="enable-background:new 0 0 512 512" xml:space="preserve" class=""> <g> <g xmlns="http://www.w3.org/2000/svg"> <path d="m44.20454 4.62263c0-2.54877-2.07386-4.62263-4.6231-4.62263-8.36778 0-24.22656 0-31.16288 0-2.54924 0-4.62311 2.07386-4.62311 4.62263v39.58665c0 2.09044 1.70076 3.79072 3.79072 3.79072h34.02083c1.43182 0 2.59754-1.16525 2.59754-2.59754 0-14.0248 0-26.1982 0-40.77983zm-1.45454 0v30.2178h-29.98106v-33.38588h26.8125c1.74716 0 3.16856 1.4214 3.16856 3.16808zm-37.5 0c0-1.74669 1.4214-3.16809 3.16856-3.16809h2.89583v33.38589h-3.732c-.83361 0-1.74058.342-2.33239.80729zm37.5 40.77983c0 .63021-.51231 1.14299-1.14299 1.14299h-34.02084c-1.28788 0-2.33617-1.04782-2.33617-2.33617v-5.57292c0-1.22076 1.00363-2.33712 2.33617-2.33712h35.16383z" fill="#1c6ea8" data-original="#000000" style="" class=""></path> <path d="m11.60322 42.14962h3.73295v2.87642c0 .4214.25095.80019.6392.96496.39845.16934.84408.07345 1.13731-.2107l.92045-.88826.9214.88826c.30208.29261.75.37547 1.13731.2107s.63826-.54356.63826-.96496v-2.87642h17.13636c.40152 0 .72727-.32576.72727-.72727s-.32576-.72727-.72727-.72727c-6.78316.00003-26.39569.00003-26.26326 0-.40152 0-.72727.32576-.72727.72727s.32577.72727.72729.72727zm7.67235 1.91951-.5161-.49763c-.4072-.3911-1.0464-.3911-1.4536.0019l-.51515.49669v-1.92046h2.48485z" fill="#1c6ea8" data-original="#000000" style="" class=""></path> <path d="m27.33144 29.64962c6.30492 0 11.43371-5.13447 11.43371-11.44602 0-6.30398-5.12879-11.43276-11.43371-11.43276-6.31155 0-11.44602 5.12879-11.44602 11.43276 0 6.31155 5.13447 11.44602 11.44602 11.44602zm0-21.42424c5.50284 0 9.97917 4.47633 9.97917 9.97822 0 5.50947-4.47633 9.99148-9.97917 9.99148-5.50947 0-9.99148-4.48201-9.99148-9.99148 0-5.5019 4.48201-9.97822 9.99148-9.97822z" fill="#1c6ea8" data-original="#000000" style="" class=""></path> <path d="m21.02083 21.85038c.60409 1.05077 1.9463 1.40481 2.99242.79782l1.11742-.64583v1.29309c0 1.18252.9642 2.19508 2.19508 2.19508 1.20739 0 2.18939-.98485 2.18939-2.19508v-1.29451l1.11458.64252c.99053.58996 2.41572.21828 2.99905-.79072.00095-.00142.00189-.00284.00284-.00474.59754-1.0483.23674-2.3911-.80492-2.99432l-1.12216-.64631 1.12311-.64773c.99181-.57439 1.43207-1.85278.80208-2.99195-.60511-1.04309-1.94602-1.40436-2.99148-.80208l-1.12311.64773v-1.29451c0-1.19221-.95284-2.18892-2.18939-2.18892-1.21023 0-2.19508.98201-2.19508 2.18892v1.29309l-1.12784-.65199c-1.05492-.58428-2.40057-.19176-2.98106.80777-.61256 1.06065-.24075 2.39868.80303 2.9929l1.12216.64678-1.12311.64725c-1.04358.60439-1.40955 1.9433-.80301 2.99574zm1.53125-1.73627 2.21401-1.27651c.48491-.28133.48356-.98105 0-1.26042l-2.2178-1.27888c-.34953-.19917-.47372-.64239-.26799-1.00142.19981-.34138.64773-.4678 1.00568-.27131l2.20833 1.27652c.4832.27814 1.09091-.06843 1.09091-.62974v-2.5535c0-.40483.33239-.73438.74053-.73438.43194 0 .73485.34285.73485.73438v2.5535c0 .56311.60943.90721 1.09091.63021l2.21307-1.27652c.35227-.2017.80208-.08144.99905.25852.22319.40358.07053.82298-.26421 1.01563l-2.21401 1.27699c-.48347.27932-.48499.97904 0 1.26042l2.21307 1.27557c.35133.20313.47159.65672.27084 1.01278-.19947.34111-.65535.47067-1.00379.26231l-2.21401-1.27652c-.48227-.27761-1.09091.06872-1.09091.63021v2.5535c0 .40814-.32955.74053-.73485.74053-.41318 0-.74053-.3459-.74053-.74053v-2.5535c0-.56032-.60686-.90837-1.09091-.62974l-2.20928 1.27699c-.35096.20151-.79872.09071-1.00379-.26468-.20811-.35972-.07663-.81001.27083-1.01041z" fill="#1c6ea8" data-original="#000000" style="" class=""></path> </g> </g> </svg> 